<svg xmlns="http://www.w3.org/2000/svg" viewBox="0 0 900 620" role="img" aria-labelledby="t d"><title id="t">Illustrative boundary survey plan</title><desc id="d">A technical parcel plan with corner coordinates, bearings, distances, north arrow and control points.</desc><defs><pattern id="g" width="32" height="32" patternUnits="userSpaceOnUse"><path d="M32 0H0V32" fill="none" stroke="#dce4e7" stroke-width="1"/></pattern></defs><rect width="900" height="620" fill="#f8faf9"/><rect x="22" y="22" width="856" height="576" rx="8" fill="url(#g)" stroke="#0a2c42" stroke-width="2"/><g fill="none" stroke="#0a2c42"><path d="M224 133 657 107 728 419 370 502 177 351Z" stroke-width="5"/><path d="M224 133 370 502M657 107 177 351" stroke="#96a9b2" stroke-dasharray="10 9"/><path d="M94 530h255M94 548h180" stroke-width="2"/></g><g fill="#c74d37" stroke="#fff" stroke-width="3"><circle cx="224" cy="133" r="10"/><circle cx="657" cy="107" r="10"/><circle cx="728" cy="419" r="10"/><circle cx="370" cy="502" r="10"/><circle cx="177" cy="351" r="10"/></g><g font-family="Arial,sans-serif" fill="#0a2c42"><text x="204" y="111" font-size="16" font-weight="700">P1</text><text x="669" y="93" font-size="16" font-weight="700">P2</text><text x="744" y="426" font-size="16" font-weight="700">P3</text><text x="373" y="530" font-size="16" font-weight="700">P4</text><text x="137" y="356" font-size="16" font-weight="700">P5</text><text x="414" y="275" font-size="30" font-weight="700">PARCEL</text><text x="425" y="305" font-size="16">Illustrative geometry</text><text x="388" y="105" font-size="15">N 86° 34' E · 433.8 m</text><text x="680" y="258" font-size="15" transform="rotate(77 680 258)">S 12° 21' E · 320.1 m</text><text x="505" y="475" font-size="15" transform="rotate(-13 505 475)">S 76° 10' W · 367.5 m</text><text x="222" y="441" font-size="15" transform="rotate(51 222 441)">N 50° 40' W · 241.8 m</text><text x="132" y="244" font-size="15" transform="rotate(-77 132 244)">N 13° 15' W · 222.3 m</text><text x="95" y="515" font-size="13" fill="#667b86">Coordinate schedule · bearings · distances · control reference</text></g><g transform="translate(790 62)" stroke="#0a2c42" fill="none" stroke-width="3"><path d="M0 58V0M0 0l-14 26M0 0l14 26"/><text x="-7" y="82" font-family="Arial" font-size="18" fill="#0a2c42" stroke="none">N</text></g><rect x="693" y="518" width="139" height="42" rx="5" fill="#0a2c42"/><text x="762" y="544" text-anchor="middle" font-family="Arial" font-size="13" fill="#fff">ILLUSTRATIVE</text></svg>